<svg width="129" height="59" viewBox="0 0 129 59" fill="none" xmlns="http://www.w3.org/2000/svg">
<path d="M4 18.1085C11.0082 9.50412 24.955 -4.10124 24.677 10.3126C24.3295 28.3299 -2.60273 63.4982 19.638 51.5444C37.4307 41.9814 47.0915 23.6523 49.6979 15.6831C50.7983 18.0507 47.7773 32.9022 51.3915 32.2092" stroke="#573CF9" stroke-width="7" stroke-linecap="round" stroke-linejoin="round"/>
<path d="M59.417 30.7585L62.3386 32.6858C63.1296 31.4868 63.1076 29.9262 62.2833 28.7499C61.4589 27.5735 59.9995 27.0203 58.6025 27.3547L59.417 30.7585ZM58.4402 53.6196C59.9378 52.3974 60.161 50.1926 58.9389 48.695C57.7167 47.1974 55.5119 46.9742 54.0143 48.1964L58.4402 53.6196ZM53.4956 35.7744L60.2316 34.1624L58.6025 27.3547L51.8665 28.9666L53.4956 35.7744ZM56.4955 28.8313C52.2331 35.2928 47.7014 43.5305 46.054 48.8928C45.6452 50.2235 45.312 51.689 45.3508 53.0348C45.3869 54.2875 45.8625 56.785 48.4744 57.6924C49.543 58.0637 50.5674 57.9823 51.3393 57.8133C52.1249 57.6414 52.8839 57.3282 53.5876 56.9677C54.9911 56.2488 56.607 55.1157 58.4402 53.6196L54.0143 48.1964C52.3415 49.5615 51.164 50.3442 50.3962 50.7375C50.2145 50.8306 50.0757 50.8914 49.9764 50.9297C49.8757 50.9685 49.8336 50.9772 49.8429 50.9752C49.8508 50.9734 49.9396 50.9542 50.092 50.9558C50.2478 50.9575 50.4872 50.9813 50.7716 51.0801C52.3661 51.6341 52.356 53.1162 52.3479 52.833C52.3424 52.6431 52.4062 52.0526 52.7454 50.9485C54.0899 46.572 58.1651 39.0125 62.3386 32.6858L56.4955 28.8313Z" fill="#573CF9"/>
<path d="M64.9782 22.5376C64.9782 23.0083 64.5967 23.3899 64.126 23.3899C63.6553 23.3899 63.2737 23.0083 63.2737 22.5376C63.2737 22.0669 63.6553 21.6853 64.126 21.6853C64.5967 21.6853 64.9782 22.0669 64.9782 22.5376Z" stroke="#573CF9" stroke-width="7"/>
<path d="M61.0632 35.5942L91.0456 26.0837C86.9072 27.1517 80.8903 30.7586 77.6664 24.9556C77.0216 26.7287 74.7648 34.3048 73.1529 38.3346C67.5219 52.4116 64.2871 61.3855 84.2754 49.1347" stroke="#573CF9" stroke-width="7" stroke-linecap="round" stroke-linejoin="round"/>
<path d="M119.062 53.3173C108.423 45.4188 112.86 27.5705 99.3958 31.8789C91.3359 34.458 74.0883 59.9838 102.781 48.482C140.178 33.4908 120.029 25.9142 114.548 29.2993" stroke="#573CF9" stroke-width="7" stroke-linecap="round"/>
</svg>
