<svg width="129" height="59" viewBox="0 0 129 59" fill="none" xmlns="http://www.w3.org/2000/svg">
<path fill-rule="evenodd" clip-rule="evenodd" d="M18.911 8.55579C15.1099 10.9053 10.1773 16.0663 6.71375 20.3187C5.49302 21.8175 3.28844 22.0429 1.78967 20.8222C0.290902 19.6015 0.0655028 17.3969 1.28623 15.8981C4.83083 11.5461 10.3757 5.60226 15.2306 2.60144C16.4729 1.83354 17.8268 1.15761 19.2114 0.792131C20.5883 0.428688 22.3044 0.295405 23.9794 1.04539C25.7331 1.83069 26.8299 3.30595 27.4362 4.93611C28.0179 6.50016 28.2154 8.35312 28.1763 10.38C28.0763 15.5648 26.1081 21.6506 23.8713 27.3213C22.513 30.7647 20.9106 34.3892 19.4409 37.7137C18.5151 39.8079 17.6419 41.7829 16.9156 43.5187C15.9288 45.8767 15.1765 47.8648 14.7393 49.4387C14.6769 49.6633 14.6245 49.868 14.5803 50.054C15.4003 49.7498 16.5139 49.2499 17.9811 48.4614C34.7197 39.4648 43.9359 22.0412 46.3712 14.595C46.8181 13.2288 48.0548 12.2746 49.4897 12.1892C50.9246 12.1037 52.2659 12.9042 52.8718 14.2078C53.3262 15.1855 53.4043 16.2971 53.4344 16.9364C53.4716 17.7254 53.4527 18.6205 53.4154 19.5083C53.379 20.3746 53.3212 21.317 53.2641 22.2473L53.2578 22.3495C53.1978 23.3272 53.1387 24.2994 53.0989 25.2417C53.0281 26.9148 53.0321 28.2546 53.1355 29.1745C53.9875 29.6647 54.6292 30.5089 54.8288 31.55C55.1928 33.4484 53.9489 35.2825 52.0505 35.6465C51.2571 35.7986 50.3628 35.766 49.4793 35.4094C48.6109 35.0591 47.9839 34.4894 47.5539 33.9316C46.7706 32.9152 46.465 31.7124 46.3133 30.8784C46.2948 30.7764 46.2774 30.6729 46.2612 30.5679C40.9463 38.9842 32.7295 48.4815 21.295 54.6272C18.4517 56.1554 15.9328 57.201 13.823 57.4242C12.7257 57.5403 11.4046 57.472 10.1637 56.8084C8.8225 56.091 8.03156 54.9252 7.65515 53.7294C7.01899 51.7083 7.49249 49.3733 7.99464 47.5654C8.55385 45.552 9.44676 43.2334 10.4582 40.8164C11.3083 38.785 12.2275 36.71 13.1682 34.5864C14.5701 31.4217 16.0198 28.1491 17.3596 24.7527C19.5752 19.1356 21.1039 14.0689 21.1776 10.245C21.2038 8.88625 21.0756 8.04868 20.9403 7.57611C20.4726 7.70881 19.7956 8.00899 18.911 8.55579ZM21.3489 7.50001C21.3488 7.50012 21.3461 7.50012 21.3408 7.4997C21.3463 7.4997 21.3489 7.49991 21.3489 7.50001ZM12.9568 50.4703C12.9569 50.4702 12.9614 50.4702 12.9699 50.4708C12.9609 50.4708 12.9566 50.4705 12.9568 50.4703Z" fill="#573CF9"/>
<path fill-rule="evenodd" clip-rule="evenodd" d="M62.2832 28.7498C63.1076 29.9261 63.1295 31.4867 62.3386 32.6857C58.865 37.9515 55.4594 44.0711 53.6397 48.4989C53.7617 48.4014 53.8865 48.3005 54.0143 48.1963C55.5119 46.9741 57.7167 47.1974 58.9388 48.695C60.161 50.1926 59.9377 52.3974 58.4401 53.6195C56.607 55.1156 54.991 56.2487 53.5875 56.9677C52.8838 57.3281 52.1248 57.6414 51.3393 57.8133C50.5674 57.9822 49.543 58.0636 48.4743 57.6924C45.8624 56.785 45.3869 54.2874 45.3507 53.0348C45.3119 51.6889 45.6452 50.2234 46.054 48.8928C47.267 44.9443 50.0438 39.4369 53.1254 34.2276L51.8664 28.9665L58.6024 27.3546C59.9994 27.0203 61.4588 27.5735 62.2832 28.7498Z" fill="#573CF9"/>
<path fill-rule="evenodd" clip-rule="evenodd" d="M64.126 19.8899C62.6637 19.8899 61.4782 21.0753 61.4782 22.5376C61.4782 23.9999 62.6637 25.1853 64.126 25.1853C65.5883 25.1853 66.7737 23.9999 66.7737 22.5376C66.7737 21.0753 65.5883 19.8899 64.126 19.8899ZM64.126 26.8899C66.5297 26.8899 68.4782 24.9413 68.4782 22.5376C68.4782 20.1339 66.5297 18.1853 64.126 18.1853C61.7223 18.1853 59.7737 20.1339 59.7737 22.5376C59.7737 24.9413 61.7223 26.8899 64.126 26.8899Z" fill="#573CF9"/>
<path fill-rule="evenodd" clip-rule="evenodd" d="M77.3895 21.4663C78.7561 21.3579 80.0601 22.0573 80.7259 23.2556C81.213 24.1324 81.6451 24.3985 81.9073 24.5102C82.2271 24.6465 82.7303 24.7315 83.5693 24.6243C84.0158 24.5672 84.4935 24.4648 85.013 24.3252L87.3582 23.5813C87.3591 23.581 87.3599 23.5807 87.3607 23.5804C88.2498 23.2761 89.2694 22.9272 90.171 22.6945C92.0066 22.2208 93.8857 23.2947 94.4094 25.1167C94.933 26.9388 93.9108 28.8465 92.1038 29.4197L89.601 30.2136C89.3416 30.3021 89.0649 30.396 88.7665 30.4952C88.222 30.6761 87.6232 30.8675 86.9891 31.0421L78.4954 33.7364C77.8037 35.8318 77.0605 37.9894 76.4025 39.6343C74.982 43.1854 73.7878 46.2334 73.0588 48.682C72.754 49.7061 72.5569 50.5405 72.4539 51.2011C74.368 50.6638 77.5386 49.1583 82.4464 46.1504C84.0944 45.1403 86.2493 45.6574 87.2594 47.3055C88.2696 48.9536 87.7524 51.1085 86.1043 52.1186C81.0729 55.2023 77.1682 57.1693 74.2361 57.971C72.7856 58.3675 71.1668 58.5974 69.6237 58.2044C67.8296 57.7475 66.509 56.5411 65.856 54.9041C65.2958 53.4999 65.3105 51.9996 65.4495 50.7737C65.5954 49.4865 65.9304 48.0937 66.3498 46.6848C67.1865 43.8744 68.5082 40.5219 69.9032 37.0345C69.9862 36.8271 70.0713 36.6087 70.1582 36.3809L62.1214 38.9302C60.2789 39.5147 58.3115 38.4948 57.727 36.6523C57.1426 34.8098 58.1624 32.8423 60.0049 32.2579L72.9458 28.153C73.035 27.8739 73.1226 27.5993 73.2081 27.3314C73.7115 25.7539 74.1401 24.4108 74.377 23.7593C74.8455 22.471 76.023 21.5747 77.3895 21.4663Z" fill="#573CF9"/>
<path fill-rule="evenodd" clip-rule="evenodd" d="M110.875 48.811C108.83 49.7604 106.571 50.7335 104.083 51.7307C100.367 53.2203 97.2539 54.1693 94.6741 54.6236C92.1557 55.0671 89.81 55.1014 87.8402 54.4001C85.64 53.6169 84.1309 51.9808 83.5834 49.8248C83.1006 47.9239 83.4525 45.9749 83.9816 44.3668C85.0541 41.1074 87.4014 37.6199 89.8799 34.8464C92.2815 32.1591 95.3898 29.486 98.3292 28.5454C102.314 27.2703 105.842 27.3909 108.706 29.466C111.263 31.3187 112.601 34.3027 113.552 36.7555C113.866 37.567 114.148 38.3437 114.419 39.1005C116.339 37.9692 117.81 36.9355 118.913 36.007C120.944 34.2967 121.307 33.3376 121.368 33.031C121.24 32.8975 120.784 32.4621 119.51 32.1745C117.905 31.8122 116.674 32.1001 116.388 32.2771C114.743 33.2929 112.586 32.7832 111.571 31.1386C110.555 29.494 111.065 27.3373 112.709 26.3215C115.163 24.806 118.506 24.7716 121.052 25.3463C123.498 25.8986 126.985 27.4461 128.084 30.9534C129.281 34.7747 126.949 38.3914 123.422 41.3615C121.807 42.721 119.728 44.1429 117.112 45.6288C118.157 47.5701 119.427 49.2295 121.148 50.5072C122.7 51.6594 123.024 53.8517 121.872 55.4037C120.72 56.9557 118.528 57.2798 116.976 56.1276C114.156 54.0345 112.262 51.4186 110.875 48.811ZM108.147 42.3596C106.19 43.2734 103.976 44.2322 101.479 45.2333C98.0214 46.6193 95.3974 47.3885 93.46 47.7297C91.734 48.0337 90.7892 47.9547 90.3559 47.8537C90.3577 47.8062 90.3613 47.7521 90.3675 47.6909C90.396 47.4094 90.4742 47.0311 90.6309 46.5548C91.2912 44.5481 92.9738 41.8894 95.0994 39.5109C97.302 37.0462 99.3721 35.5613 100.463 35.2124C103.21 34.3333 104.176 34.8281 104.599 35.1346C105.329 35.6636 106.072 36.8275 107.025 39.2856C107.27 39.9189 107.536 40.6585 107.823 41.4605C107.928 41.7526 108.036 42.053 108.147 42.3596ZM121.379 32.9217C121.379 32.9216 121.38 32.9281 121.38 32.941C121.378 32.9282 121.378 32.9217 121.379 32.9217Z" fill="#573CF9"/>
</svg>
