<svg width="24" height="24" viewBox="0 0 24 24" fill="none" xmlns="http://www.w3.org/2000/svg">
<path d="M21.111 22.2485C17.4264 22.2978 12.7317 21.1719 8.89435 18.2075C5.08301 15.2632 2.06682 10.4684 1.75064 3.05548C1.73558 2.70253 2.00217 2.37769 2.38702 2.32797L6.81121 1.75641C7.20549 1.70547 7.57261 1.96653 7.65394 2.35576L8.43983 6.117C8.50123 6.41088 8.38422 6.7134 8.14107 6.88945L7.27338 7.51766C6.61704 7.99287 6.35869 8.87488 6.71031 9.63554C8.75542 14.0598 11.4408 16.2778 14.6631 17.5612C15.4897 17.8904 16.3907 17.5159 16.7946 16.7756L17.3187 15.815C17.477 15.5248 17.8045 15.37 18.1291 15.4317L21.6308 16.0972C22.0201 16.1713 22.2876 16.5317 22.2456 16.9259L21.7455 21.6208C21.7053 21.9983 21.4181 22.2443 21.111 22.2485Z" fill="black" stroke="black" stroke-width="1.5" stroke-linecap="round"/>
</svg>
