<svg width="169" height="177" viewBox="0 0 169 177" fill="none" xmlns="http://www.w3.org/2000/svg">
<path fill-rule="evenodd" clip-rule="evenodd" d="M57.0639 24.8286C45.2198 32.1495 29.8886 48.1979 19.1411 61.3933C15.4789 65.8896 8.86519 66.5658 4.36889 62.9036C-0.127417 59.2415 -0.803614 52.6277 2.85856 48.1314C13.8492 34.6375 31.0173 16.2404 46.0225 6.96556C49.8597 4.59376 54.0258 2.51618 58.274 1.39484C62.4991 0.279597 67.7318 -0.120284 72.8267 2.16108C78.1582 4.54839 81.5045 9.03703 83.3609 14.0284C85.1435 18.8214 85.7551 24.5191 85.6343 30.7832C85.3254 46.7962 79.2427 65.6214 72.3056 83.2082C68.0935 93.8865 63.1314 105.11 58.5759 115.415C55.7032 121.912 52.9922 128.044 50.733 133.443C47.671 140.76 45.3302 146.944 43.968 151.848C43.6995 152.815 43.4891 153.665 43.3242 154.41C45.9463 153.484 49.6064 151.875 54.5354 149.226C106.563 121.262 135.195 67.1253 142.767 43.9751C144.107 39.8764 147.818 37.014 152.122 36.7576C156.427 36.5012 160.451 38.9029 162.268 42.8134C163.646 45.7768 163.887 49.1616 163.981 51.1438C164.096 53.575 164.037 56.3388 163.922 59.0897C163.809 61.7748 163.63 64.6965 163.452 67.5848L163.433 67.8956C163.247 70.9279 163.064 73.9468 162.94 76.8735C162.716 82.169 162.732 86.4159 163.076 89.3087C165.71 90.7649 167.701 93.3366 168.312 96.5229C169.404 102.218 165.672 107.72 159.977 108.812C157.574 109.273 154.871 109.173 152.202 108.097C149.579 107.038 147.682 105.317 146.379 103.626C144.002 100.541 143.066 96.8786 142.599 94.3089C142.486 93.6896 142.388 93.0513 142.302 92.3976C125.861 118.662 100.254 148.495 64.4773 167.723C55.6642 172.46 47.9026 175.674 41.4315 176.359C38.069 176.714 34.0505 176.502 30.2868 174.489C26.2219 172.314 23.8219 168.781 22.6775 165.145C20.7386 158.986 22.1768 151.835 23.7339 146.228C25.4623 140.005 28.2248 132.83 31.3608 125.336C33.9912 119.05 36.8404 112.619 39.7578 106.033C44.1099 96.2077 48.614 86.0399 52.7704 75.5026C59.6441 58.0765 64.4081 42.3085 64.6382 30.3782C64.7262 25.8156 64.2566 23.1068 63.7864 21.6603C63.7373 21.6724 63.6864 21.6854 63.6335 21.6994C62.1321 22.0957 59.939 23.0515 57.0639 24.8286ZM64.8294 21.5013C64.8293 21.5016 64.822 21.5014 64.808 21.4999C64.8226 21.5003 64.8296 21.501 64.8294 21.5013ZM38.7702 155.499C38.7706 155.499 38.7833 155.499 38.8074 155.501C38.782 155.501 38.7699 155.5 38.7702 155.499Z" fill="#573CF9"/>
</svg>
